<svg id="Layer_1" data-name="Layer 1" xmlns="http://www.w3.org/2000/svg" viewBox="0 0 251.02 361.17" width="28px" height="40px"><defs><style>.cls-1{fill:#fff;}.cls-2{fill:#f68b1f;}.cls-3{fill:#f7941e;}.cls-4{fill:#662d91;}.cls-5{fill:#262262;}.cls-6{fill:#d1d3d4;}</style></defs><title>Artboard 1</title><path class="cls-1" d="M250.25,125.67c0,99.84-106.93,234.69-124.69,234.69S.88,225.51.88,125.67a124.69,124.69,0,0,1,249.37,0Z"/><circle class="cls-2" cx="125.56" cy="125.67" r="99.84"/><path class="cls-3" d="M125.94,25.84V225.51a99.83,99.83,0,0,0,0-199.66Z"/><path class="cls-4" d="M184.55,87.1H151.36V81.52a5.82,5.82,0,0,0-5.82-5.82H106.33a5.81,5.81,0,0,0-5.82,5.82V87.1H67.31a5.82,5.82,0,0,0-5.82,5.82v76.91a5.82,5.82,0,0,0,5.82,5.82H184.55a5.81,5.81,0,0,0,5.82-5.82V92.92a5.81,5.81,0,0,0-5.82-5.82Z"/><circle class="cls-4" cx="125.94" cy="131.38" r="25.86"/><path class="cls-5" d="M125.94,75.7H106.33a5.83,5.83,0,0,0-5.82,5.82V87.1H67.32a5.83,5.83,0,0,0-5.83,5.82v76.91a5.83,5.83,0,0,0,5.83,5.83h58.62V75.71Z"/><path class="cls-1" d="M125.94,162.33a31,31,0,1,1,31-31A31,31,0,0,1,125.94,162.33Zm0-51.73a20.78,20.78,0,1,0,20.77,20.78,20.79,20.79,0,0,0-20.77-20.78Z"/><path class="cls-6" d="M105.16,131.38a20.79,20.79,0,0,1,20.77-20.77V100.42a31,31,0,0,0,0,61.91V152.15A20.8,20.8,0,0,1,105.16,131.38Z"/></svg>